<svg xmlns="http://www.w3.org/2000/svg" width="83.75" height="83.75" viewBox="0 0 83.75 83.75"><rect width="83.75" height="83.75" fill="none"/><g transform="translate(8.067 9.213)"><path d="M19.481,30.364a1.991,1.991,0,0,1-1-.268L4.524,22.035,4.5,22.02a3.849,3.849,0,0,1,0-6.609l.026-.015L25.043,3.548a2,2,0,1,1,2,3.464L6.774,18.715l13.709,7.917a2,2,0,0,1-1,3.732Z" transform="translate(-4.624 -5.28)"/><path d="M7.2,6.153a1.991,1.991,0,0,1-1-.267L-1,1.733A2,2,0,0,1-1.733-1,2,2,0,0,1,1-1.733L8.2,2.42a2,2,0,0,1-1,3.733Z" transform="translate(31.871 4.973)"/><path d="M37.8,40.452a3.738,3.738,0,0,1-1.936-.543l-16-9.218,2-3.466L37.8,36.408l20.17-11.646L44.086,16.731l2-3.463,14.15,8.183.013.008a3.832,3.832,0,0,1,0,6.606l-.014.008L39.74,39.908A3.737,3.737,0,0,1,37.8,40.452Z" transform="translate(7.477 1.959)"/><path d="M37.862,42.195a4.6,4.6,0,0,1-2.312-.622l-15.7-9.035a2,2,0,1,1,2-3.467l15.7,9.038.009.005a.6.6,0,0,0,.6,0l.007,0L57.1,27.188a2,2,0,1,1,2,3.465L40.173,41.573A4.6,4.6,0,0,1,37.862,42.195Z" transform="translate(7.462 12.327)"/><path d="M12.787,9.381a1.991,1.991,0,0,1-1-.268L-1,1.732A2,2,0,0,1-1.732-1,2,2,0,0,1,1-1.732l12.789,7.38a2,2,0,0,1-1,3.733Z" transform="translate(2.105 27.917)"/><path d="M37.862,49.195a4.6,4.6,0,0,1-2.309-.62l-15.7-9.037a2,2,0,0,1,2-3.467l15.7,9.038.009.005a.6.6,0,0,0,.6,0l.007,0L57.1,34.188a2,2,0,1,1,2,3.465L40.172,48.574A4.6,4.6,0,0,1,37.862,49.195Z" transform="translate(7.462 17.54)"/><path d="M12.787,9.381a1.991,1.991,0,0,1-1-.268L-1,1.732A2,2,0,0,1-1.732-1,2,2,0,0,1,1-1.732l12.789,7.38a2,2,0,0,1-1,3.733Z" transform="translate(2.105 40.13)"/><path d="M40.361,7.51a2,2,0,0,1,1,.269l13.487,7.8a2,2,0,0,1,0,3.464L28.577,34.2V60.877a2,2,0,0,1-3,1.732L12.16,54.862a2,2,0,0,1-1-1.732V25.213a2,2,0,0,1,1-1.732l27.2-15.7A2,2,0,0,1,40.361,7.51Zm9.489,9.8L40.36,11.82,15.16,26.368V51.975l9.417,5.437V33.047a2,2,0,0,1,1-1.732Z" transform="translate(1.734 -2.13)"/></g></svg>