<svg xmlns="http://www.w3.org/2000/svg" width="546.727" height="18.687" viewBox="0 0 546.727 18.687"><g transform="translate(-376.137 -1405.157)"><g transform="translate(0 -6)"><path d="M.364,18.343l-.727-.687,17-18,.727.687Z" transform="translate(376.5 1411.5)" fill="#707070"/><path d="M.364,18.343l-.727-.687,17-18,.727.687Z" transform="translate(410.5 1411.5)" fill="#707070"/><path d="M.364,18.343l-.727-.687,17-18,.727.687Z" transform="translate(393.5 1411.5)" fill="#707070"/><path d="M.364,18.343l-.727-.687,17-18,.727.687Z" transform="translate(427.5 1411.5)" fill="#707070"/><path d="M.364,18.343l-.727-.687,17-18,.727.687Z" transform="translate(384.5 1411.5)" fill="#707070"/><path d="M.364,18.343l-.727-.687,17-18,.727.687Z" transform="translate(418.5 1411.5)" fill="#707070"/><path d="M.364,18.343l-.727-.687,17-18,.727.687Z" transform="translate(401.5 1411.5)" fill="#707070"/><path d="M.364,18.343l-.727-.687,17-18,.727.687Z" transform="translate(435.5 1411.5)" fill="#707070"/><g transform="translate(134)"><path d="M.364,18.343l-.727-.687,17-18,.727.687Z" transform="translate(376.5 1411.5)" fill="#707070"/><path d="M.364,18.343l-.727-.687,17-18,.727.687Z" transform="translate(410.5 1411.5)" fill="#707070"/><path d="M.364,18.343l-.727-.687,17-18,.727.687Z" transform="translate(393.5 1411.5)" fill="#707070"/><path d="M.364,18.343l-.727-.687,17-18,.727.687Z" transform="translate(427.5 1411.5)" fill="#707070"/><path d="M.364,18.343l-.727-.687,17-18,.727.687Z" transform="translate(384.5 1411.5)" fill="#707070"/><path d="M.364,18.343l-.727-.687,17-18,.727.687Z" transform="translate(418.5 1411.5)" fill="#707070"/><path d="M.364,18.343l-.727-.687,17-18,.727.687Z" transform="translate(401.5 1411.5)" fill="#707070"/><path d="M.364,18.343l-.727-.687,17-18,.727.687Z" transform="translate(435.5 1411.5)" fill="#707070"/></g><g transform="translate(67)"><path d="M.364,18.343l-.727-.687,17-18,.727.687Z" transform="translate(376.5 1411.5)" fill="#707070"/><path d="M.364,18.343l-.727-.687,17-18,.727.687Z" transform="translate(410.5 1411.5)" fill="#707070"/><path d="M.364,18.343l-.727-.687,17-18,.727.687Z" transform="translate(393.5 1411.5)" fill="#707070"/><path d="M.364,18.343l-.727-.687,17-18,.727.687Z" transform="translate(427.5 1411.5)" fill="#707070"/><path d="M.364,18.343l-.727-.687,17-18,.727.687Z" transform="translate(384.5 1411.5)" fill="#707070"/><path d="M.364,18.343l-.727-.687,17-18,.727.687Z" transform="translate(418.5 1411.5)" fill="#707070"/><path d="M.364,18.343l-.727-.687,17-18,.727.687Z" transform="translate(401.5 1411.5)" fill="#707070"/><path d="M.364,18.343l-.727-.687,17-18,.727.687Z" transform="translate(435.5 1411.5)" fill="#707070"/></g><g transform="translate(201)"><path d="M.364,18.343l-.727-.687,17-18,.727.687Z" transform="translate(376.5 1411.5)" fill="#707070"/><path d="M.364,18.343l-.727-.687,17-18,.727.687Z" transform="translate(410.5 1411.5)" fill="#707070"/><path d="M.364,18.343l-.727-.687,17-18,.727.687Z" transform="translate(393.5 1411.5)" fill="#707070"/><path d="M.364,18.343l-.727-.687,17-18,.727.687Z" transform="translate(427.5 1411.5)" fill="#707070"/><path d="M.364,18.343l-.727-.687,17-18,.727.687Z" transform="translate(384.5 1411.5)" fill="#707070"/><path d="M.364,18.343l-.727-.687,17-18,.727.687Z" transform="translate(418.5 1411.5)" fill="#707070"/><path d="M.364,18.343l-.727-.687,17-18,.727.687Z" transform="translate(401.5 1411.5)" fill="#707070"/><path d="M.364,18.343l-.727-.687,17-18,.727.687Z" transform="translate(435.5 1411.5)" fill="#707070"/></g></g><g transform="translate(269 -6)"><path d="M.364,18.343l-.727-.687,17-18,.727.687Z" transform="translate(376.5 1411.5)" fill="#707070"/><path d="M.364,18.343l-.727-.687,17-18,.727.687Z" transform="translate(410.5 1411.5)" fill="#707070"/><path d="M.364,18.343l-.727-.687,17-18,.727.687Z" transform="translate(393.5 1411.5)" fill="#707070"/><path d="M.364,18.343l-.727-.687,17-18,.727.687Z" transform="translate(427.5 1411.5)" fill="#707070"/><path d="M.364,18.343l-.727-.687,17-18,.727.687Z" transform="translate(384.5 1411.5)" fill="#707070"/><path d="M.364,18.343l-.727-.687,17-18,.727.687Z" transform="translate(418.5 1411.5)" fill="#707070"/><path d="M.364,18.343l-.727-.687,17-18,.727.687Z" transform="translate(401.5 1411.5)" fill="#707070"/><path d="M.364,18.343l-.727-.687,17-18,.727.687Z" transform="translate(435.5 1411.5)" fill="#707070"/><g transform="translate(134)"><path d="M.364,18.343l-.727-.687,17-18,.727.687Z" transform="translate(376.5 1411.5)" fill="#707070"/><path d="M.364,18.343l-.727-.687,17-18,.727.687Z" transform="translate(410.5 1411.5)" fill="#707070"/><path d="M.364,18.343l-.727-.687,17-18,.727.687Z" transform="translate(393.5 1411.5)" fill="#707070"/><path d="M.364,18.343l-.727-.687,17-18,.727.687Z" transform="translate(427.5 1411.5)" fill="#707070"/><path d="M.364,18.343l-.727-.687,17-18,.727.687Z" transform="translate(384.5 1411.5)" fill="#707070"/><path d="M.364,18.343l-.727-.687,17-18,.727.687Z" transform="translate(418.5 1411.5)" fill="#707070"/><path d="M.364,18.343l-.727-.687,17-18,.727.687Z" transform="translate(401.5 1411.5)" fill="#707070"/><path d="M.364,18.343l-.727-.687,17-18,.727.687Z" transform="translate(435.5 1411.5)" fill="#707070"/></g><g transform="translate(67)"><path d="M.364,18.343l-.727-.687,17-18,.727.687Z" transform="translate(376.5 1411.5)" fill="#707070"/><path d="M.364,18.343l-.727-.687,17-18,.727.687Z" transform="translate(410.5 1411.5)" fill="#707070"/><path d="M.364,18.343l-.727-.687,17-18,.727.687Z" transform="translate(393.5 1411.5)" fill="#707070"/><path d="M.364,18.343l-.727-.687,17-18,.727.687Z" transform="translate(427.5 1411.5)" fill="#707070"/><path d="M.364,18.343l-.727-.687,17-18,.727.687Z" transform="translate(384.5 1411.5)" fill="#707070"/><path d="M.364,18.343l-.727-.687,17-18,.727.687Z" transform="translate(418.5 1411.5)" fill="#707070"/><path d="M.364,18.343l-.727-.687,17-18,.727.687Z" transform="translate(401.5 1411.5)" fill="#707070"/><path d="M.364,18.343l-.727-.687,17-18,.727.687Z" transform="translate(435.5 1411.5)" fill="#707070"/></g><g transform="translate(201)"><path d="M.364,18.343l-.727-.687,17-18,.727.687Z" transform="translate(376.5 1411.5)" fill="#707070"/><path d="M.364,18.343l-.727-.687,17-18,.727.687Z" transform="translate(410.5 1411.5)" fill="#707070"/><path d="M.364,18.343l-.727-.687,17-18,.727.687Z" transform="translate(393.5 1411.5)" fill="#707070"/><path d="M.364,18.343l-.727-.687,17-18,.727.687Z" transform="translate(427.5 1411.5)" fill="#707070"/><path d="M.364,18.343l-.727-.687,17-18,.727.687Z" transform="translate(384.5 1411.5)" fill="#707070"/><path d="M.364,18.343l-.727-.687,17-18,.727.687Z" transform="translate(418.5 1411.5)" fill="#707070"/><path d="M.364,18.343l-.727-.687,17-18,.727.687Z" transform="translate(401.5 1411.5)" fill="#707070"/><path d="M.364,18.343l-.727-.687,17-18,.727.687Z" transform="translate(435.5 1411.5)" fill="#707070"/></g></g></g></svg>