<svg xmlns="http://www.w3.org/2000/svg" width="51.599" height="51.599" viewBox="0 0 51.599 51.599"><rect width="51.599" height="51.599" fill="none"/><path d="M6.45-2A8.45,8.45,0,1,1-2,6.45,8.459,8.459,0,0,1,6.45-2Zm0,12.9A4.45,4.45,0,1,0,2,6.45,4.455,4.455,0,0,0,6.45,10.9Z" transform="translate(19.349 30.099)"/><path d="M43.31,50.439a2,2,0,0,1-1.75-2.966A18.424,18.424,0,0,0,41.4,29.4a2,2,0,0,1-.266-1V17.107L33.874,21.3a2,2,0,0,1-1.729.131,18.473,18.473,0,0,0-13.115-.136,2,2,0,0,1-1.687-.144l-7.333-4.22V27.918a2,2,0,0,1-.294,1.045A18.424,18.424,0,0,0,8.76,46.439H35.4a2,2,0,0,1,0,4H7.537A2,2,0,0,1,5.785,49.4,22.424,22.424,0,0,1,6.01,27.368V13.47a2,2,0,0,1,3-1.733l9.543,5.491a22.465,22.465,0,0,1,14.133.138l9.446-5.456a2,2,0,0,1,3,1.732V27.881A22.424,22.424,0,0,1,45.063,49.4,2,2,0,0,1,43.31,50.439Z" transform="translate(0.375 1.01)"/><path d="M29.576,14.323a2,2,0,0,1-1.589-3.213,4.45,4.45,0,1,0-7.075,0,2,2,0,0,1-3.18,2.426,8.45,8.45,0,1,1,13.435,0A2,2,0,0,1,29.576,14.323Z" transform="translate(1.349 0.147)"/><circle cx="2.15" cy="2.15" r="2.15" transform="translate(12.9 25.799)"/><circle cx="2.15" cy="2.15" r="2.15" transform="translate(34.399 25.799)"/></svg>